<svg width="163" height="160" viewBox="0 0 163 160" fill="none" xmlns="http://www.w3.org/2000/svg">
<g style="mix-blend-mode:multiply">
<path d="M162.419 75.7895V151.579C162.419 156.232 158.651 160 153.998 160H78.2088C73.5562 160 69.7878 156.232 69.7878 151.579V50.5263C69.7878 45.8737 73.5562 42.1053 78.2088 42.1053H128.735L162.419 75.7895Z" fill="#199BE2"/>
<path d="M111.895 108.32V94.5516C111.895 92.8421 109.827 91.9874 108.623 93.2L92.838 109.069C91.4611 110.455 91.4611 112.695 92.838 114.084L108.623 129.954C109.827 131.171 111.895 130.316 111.895 128.606V117.802" fill="#004697"/>
<path d="M128.737 42.1053V67.3684C128.737 72.0211 132.505 75.7895 137.158 75.7895H162.421L128.737 42.1053Z" fill="#004697"/>
<path d="M93.2104 33.6842V109.474C93.2104 114.126 89.442 117.895 84.7893 117.895H8.99985C4.34722 117.895 0.578796 114.126 0.578796 109.474V8.42105C0.578796 3.76842 4.34722 0 8.99985 0H59.5262L93.2104 33.6842Z" fill="#00E0FF"/>
<path d="M59.5261 0V25.2632C59.5261 29.9158 63.2945 33.6842 67.9471 33.6842H93.2103L59.5261 0Z" fill="#0079D2"/>
<path d="M51.1042 75.6968V86.501C51.1042 88.2105 53.1716 89.0653 54.3758 87.8526L70.161 71.9831C71.5379 70.5937 71.5379 68.3537 70.161 66.9684L54.3758 51.0989C53.1716 49.8821 51.1042 50.7368 51.1042 52.4463V66.2147" fill="#0079D2"/>
<path d="M55.3157 63.1579H23.7368C22.5747 63.1579 21.6315 64.1011 21.6315 65.2632V73.6842C21.6315 74.8463 22.5747 75.7895 23.7368 75.7895H55.3157" fill="#0079D2"/>
<path d="M103.475 117.895H139.265C140.427 117.895 141.37 116.952 141.37 115.789V107.368C141.37 106.206 140.427 105.263 139.265 105.263H103.475" fill="#004697"/>
</g>
</svg>
