<svg width="183" height="32" viewBox="0 0 183 32" fill="none" xmlns="http://www.w3.org/2000/svg">
<path d="M62.688 8.128C63.056 8.128 63.408 8.272 63.744 8.56C64.08 8.832 64.248 9.208 64.248 9.688C64.248 9.832 64.224 9.992 64.176 10.168L59.448 24.088C59.352 24.376 59.176 24.6 58.92 24.76C58.68 24.904 58.424 24.984 58.152 25C57.88 25 57.608 24.92 57.336 24.76C57.08 24.6 56.88 24.368 56.736 24.064L53.184 16L53.4 16.144L49.896 24.064C49.752 24.368 49.544 24.6 49.272 24.76C49.016 24.92 48.752 25 48.48 25C48.224 24.984 47.968 24.904 47.712 24.76C47.456 24.6 47.28 24.376 47.184 24.088L42.456 10.168C42.408 9.992 42.384 9.832 42.384 9.688C42.384 9.208 42.552 8.832 42.888 8.56C43.24 8.272 43.6 8.128 43.968 8.128C44.272 8.128 44.552 8.208 44.808 8.368C45.08 8.528 45.264 8.76 45.36 9.064L49.176 20.632L48.648 20.608L52.056 12.424C52.184 12.136 52.368 11.912 52.608 11.752C52.848 11.576 53.12 11.496 53.424 11.512C53.728 11.496 54 11.576 54.24 11.752C54.48 11.912 54.656 12.136 54.768 12.424L57.888 20.248L57.504 20.488L61.272 9.064C61.368 8.76 61.552 8.528 61.824 8.368C62.096 8.208 62.384 8.128 62.688 8.128ZM72.1896 11.968L67.0056 24.16C66.8936 24.464 66.7176 24.704 66.4776 24.88C66.2536 25.04 66.0056 25.12 65.7336 25.12C65.3016 25.12 64.9816 25 64.7736 24.76C64.5656 24.52 64.4616 24.224 64.4616 23.872C64.4616 23.728 64.4856 23.576 64.5336 23.416L70.5096 9.064C70.6376 8.744 70.8296 8.496 71.0856 8.32C71.3576 8.144 71.6456 8.072 71.9496 8.104C72.2376 8.104 72.5016 8.192 72.7416 8.368C72.9976 8.528 73.1816 8.76 73.2936 9.064L79.1976 23.128C79.2776 23.336 79.3176 23.528 79.3176 23.704C79.3176 24.136 79.1736 24.48 78.8856 24.736C78.6136 24.992 78.3096 25.12 77.9736 25.12C77.6856 25.12 77.4216 25.032 77.1816 24.856C76.9576 24.68 76.7816 24.44 76.6536 24.136L71.4936 12.112L72.1896 11.968ZM67.7496 21.232L69.0696 18.472H75.5496L76.0056 21.232H67.7496ZM86.8697 25.24C85.7497 25.24 84.7417 25.104 83.8457 24.832C82.9497 24.544 82.0937 24.048 81.2777 23.344C81.0697 23.168 80.9097 22.968 80.7977 22.744C80.6857 22.52 80.6297 22.296 80.6297 22.072C80.6297 21.704 80.7577 21.384 81.0137 21.112C81.2857 20.824 81.6217 20.68 82.0217 20.68C82.3257 20.68 82.5977 20.776 82.8377 20.968C83.4457 21.464 84.0457 21.84 84.6377 22.096C85.2457 22.352 85.9897 22.48 86.8697 22.48C87.4617 22.48 88.0057 22.392 88.5017 22.216C88.9977 22.024 89.3977 21.776 89.7017 21.472C90.0057 21.152 90.1577 20.792 90.1577 20.392C90.1577 19.912 90.0137 19.504 89.7257 19.168C89.4377 18.832 88.9977 18.552 88.4057 18.328C87.8137 18.088 87.0617 17.904 86.1497 17.776C85.2857 17.648 84.5257 17.456 83.8697 17.2C83.2137 16.928 82.6617 16.592 82.2137 16.192C81.7817 15.776 81.4537 15.296 81.2297 14.752C81.0057 14.192 80.8937 13.568 80.8937 12.88C80.8937 11.84 81.1577 10.952 81.6857 10.216C82.2297 9.48 82.9577 8.92 83.8697 8.536C84.7817 8.152 85.7897 7.96 86.8937 7.96C87.9337 7.96 88.8937 8.12 89.7737 8.44C90.6697 8.744 91.3977 9.136 91.9577 9.616C92.4217 9.984 92.6537 10.408 92.6537 10.888C92.6537 11.24 92.5177 11.56 92.2457 11.848C91.9737 12.136 91.6537 12.28 91.2857 12.28C91.0457 12.28 90.8297 12.208 90.6377 12.064C90.3817 11.84 90.0377 11.632 89.6057 11.44C89.1737 11.232 88.7177 11.064 88.2377 10.936C87.7577 10.792 87.3097 10.72 86.8937 10.72C86.2057 10.72 85.6217 10.808 85.1417 10.984C84.6777 11.16 84.3257 11.4 84.0857 11.704C83.8457 12.008 83.7257 12.36 83.7257 12.76C83.7257 13.24 83.8617 13.64 84.1337 13.96C84.4217 14.264 84.8297 14.512 85.3577 14.704C85.8857 14.88 86.5177 15.04 87.2537 15.184C88.2137 15.36 89.0537 15.568 89.7737 15.808C90.5097 16.048 91.1177 16.36 91.5977 16.744C92.0777 17.112 92.4377 17.584 92.6777 18.16C92.9177 18.72 93.0377 19.408 93.0377 20.224C93.0377 21.264 92.7497 22.16 92.1737 22.912C91.5977 23.664 90.8377 24.24 89.8937 24.64C88.9657 25.04 87.9577 25.24 86.8697 25.24ZM102.078 11.968L96.894 24.16C96.782 24.464 96.606 24.704 96.366 24.88C96.142 25.04 95.894 25.12 95.622 25.12C95.19 25.12 94.87 25 94.662 24.76C94.454 24.52 94.35 24.224 94.35 23.872C94.35 23.728 94.374 23.576 94.422 23.416L100.398 9.064C100.526 8.744 100.718 8.496 100.974 8.32C101.246 8.144 101.534 8.072 101.838 8.104C102.126 8.104 102.39 8.192 102.63 8.368C102.886 8.528 103.07 8.76 103.182 9.064L109.086 23.128C109.166 23.336 109.206 23.528 109.206 23.704C109.206 24.136 109.062 24.48 108.774 24.736C108.502 24.992 108.198 25.12 107.862 25.12C107.574 25.12 107.31 25.032 107.07 24.856C106.846 24.68 106.67 24.44 106.542 24.136L101.382 12.112L102.078 11.968ZM97.638 21.232L98.958 18.472H105.438L105.894 21.232H97.638ZM118.87 8.2C120.406 8.2 121.55 8.56 122.302 9.28C123.054 10 123.43 11.064 123.43 12.472C123.43 13.224 123.246 13.888 122.878 14.464C122.51 15.024 121.966 15.464 121.246 15.784C120.526 16.088 119.638 16.24 118.582 16.24L118.678 15.16C119.174 15.16 119.742 15.232 120.382 15.376C121.022 15.504 121.638 15.744 122.23 16.096C122.838 16.432 123.334 16.912 123.718 17.536C124.118 18.144 124.318 18.928 124.318 19.888C124.318 20.944 124.142 21.808 123.79 22.48C123.454 23.152 123.006 23.672 122.446 24.04C121.886 24.408 121.286 24.664 120.646 24.808C120.006 24.936 119.39 25 118.798 25H112.822C112.406 25 112.054 24.864 111.766 24.592C111.494 24.304 111.358 23.952 111.358 23.536V9.664C111.358 9.248 111.494 8.904 111.766 8.632C112.054 8.344 112.406 8.2 112.822 8.2H118.87ZM118.438 11.032H114.166L114.478 10.648V14.992L114.19 14.776H118.51C118.974 14.776 119.39 14.624 119.758 14.32C120.126 14.016 120.31 13.576 120.31 13C120.31 12.312 120.134 11.816 119.782 11.512C119.446 11.192 118.998 11.032 118.438 11.032ZM118.63 17.608H114.262L114.478 17.416V22.48L114.238 22.24H118.798C119.534 22.24 120.118 22.048 120.55 21.664C120.982 21.264 121.198 20.672 121.198 19.888C121.198 19.168 121.054 18.648 120.766 18.328C120.478 18.008 120.134 17.808 119.734 17.728C119.334 17.648 118.966 17.608 118.63 17.608ZM130.205 23.536C130.205 23.952 130.053 24.304 129.749 24.592C129.445 24.864 129.093 25 128.693 25C128.245 25 127.885 24.864 127.613 24.592C127.341 24.304 127.205 23.952 127.205 23.536V9.664C127.205 9.248 127.349 8.904 127.637 8.632C127.925 8.344 128.293 8.2 128.741 8.2C129.125 8.2 129.461 8.344 129.749 8.632C130.053 8.904 130.205 9.248 130.205 9.664V23.536ZM150.045 22.192C150.461 22.192 150.805 22.328 151.077 22.6C151.365 22.856 151.509 23.192 151.509 23.608C151.509 24.008 151.365 24.344 151.077 24.616C150.805 24.872 150.461 25 150.045 25H142.245C141.829 25 141.477 24.864 141.189 24.592C140.917 24.304 140.781 23.952 140.781 23.536V9.664C140.781 9.248 140.925 8.904 141.213 8.632C141.501 8.344 141.869 8.2 142.317 8.2C142.701 8.2 143.037 8.344 143.325 8.632C143.629 8.904 143.781 9.248 143.781 9.664V22.6L143.253 22.192H150.045ZM157.675 25C157.227 25 156.859 24.864 156.571 24.592C156.283 24.304 156.139 23.952 156.139 23.536V9.616H159.259V23.536C159.259 23.952 159.107 24.304 158.803 24.592C158.515 24.864 158.139 25 157.675 25ZM152.371 10.96C151.955 10.96 151.603 10.832 151.315 10.576C151.043 10.32 150.907 9.984 150.907 9.568C150.907 9.152 151.043 8.824 151.315 8.584C151.603 8.328 151.955 8.2 152.371 8.2H163.027C163.443 8.2 163.787 8.328 164.059 8.584C164.347 8.84 164.491 9.176 164.491 9.592C164.491 10.008 164.347 10.344 164.059 10.6C163.787 10.84 163.443 10.96 163.027 10.96H152.371ZM174.33 8.2C175.482 8.2 176.506 8.416 177.402 8.848C178.298 9.28 179.05 9.888 179.658 10.672C180.282 11.44 180.746 12.336 181.05 13.36C181.37 14.368 181.53 15.448 181.53 16.6C181.53 18.152 181.25 19.568 180.69 20.848C180.13 22.112 179.314 23.12 178.242 23.872C177.186 24.624 175.882 25 174.33 25H168.594C168.178 25 167.826 24.864 167.538 24.592C167.266 24.304 167.13 23.952 167.13 23.536V9.664C167.13 9.248 167.266 8.904 167.538 8.632C167.826 8.344 168.178 8.2 168.594 8.2H174.33ZM174.09 22.24C175.098 22.24 175.922 21.984 176.562 21.472C177.202 20.944 177.666 20.256 177.954 19.408C178.258 18.544 178.41 17.608 178.41 16.6C178.41 15.848 178.322 15.136 178.146 14.464C177.986 13.776 177.73 13.176 177.378 12.664C177.026 12.136 176.578 11.72 176.034 11.416C175.49 11.112 174.842 10.96 174.09 10.96H169.89L170.13 10.744V22.504L169.986 22.24H174.09Z" fill="#062A54"/>
<rect width="34" height="8" fill="#062A54"/>
<rect y="12" width="34" height="8" fill="#062A54"/>
<rect y="24" width="34" height="8" fill="#062A54"/>
</svg>
